# xmcd
#
# Track frame offsets:
#	182
#	18797
#	26757
#	45302
#	58182
#	68772
#	79850
#	98567
#	108557
#	123072
#	139945
#	155877
#
# Disc length: 2244 seconds
#
# Revision: 1
# Processed by: cddbd v1.5.2PL0 Copyright (c) Steve Scherf et al.
# Submitted via: audiograbber 1.83.01
#
DISCID=9808c20c
DTITLE=Drifters Caravan - Country Oldies Spielen Country Oldies
DYEAR=1995
DGENRE=Country
TTITLE0=Jukebox On My Mind
TTITLE1=Mockin' Bird Hill
TTITLE2=Sunday Morning Coming Down
TTITLE3=Red River Valley
TTITLE4=There's A Tear In My Beer
TTITLE5=Don't Let The Stars
TTITLE6=Satin Sheets
TTITLE7=White Sport Coat
TTITLE8=Wand'rin Star
TTITLE9=Drinking Champagne
TTITLE10=Can't Help Falling In Love
TTITLE11=Home On The Range
EXTD=
EXTT0=
EXTT1=
EXTT2=
EXTT3=
EXTT4=
EXTT5=
EXTT6=
EXTT7=
EXTT8=
EXTT9=
EXTT10=
EXTT11=
PLAYORDER=
